<svg xmlns="http://www.w3.org/2000/svg" viewBox="0 0 316 377" width="316" height="377">
	<style>
		tspan { white-space:pre }
		.shp0 { fill: #1d1d1b } 
	</style>
	<path id="Path 0" class="shp0" d="M0,0h93v276h-93v-138M111,92h94v184h-94v-92M223,184h93v92h-93v-46M215.1,299.28c7.62,0.2 9.39,0.62 15.48,3.72c4.06,2.06 6.99,4.22 7.15,5.25c0.15,0.96 -0.95,3.66 -2.43,6c-1.48,2.34 -3.28,4.81 -4,5.5c-1.05,1.01 -2.57,0.57 -7.81,-2.25c-3.89,-2.1 -7.9,-3.5 -10,-3.5c-2.17,0 -4.26,0.76 -5.5,2c-1.1,1.1 -2,2.56 -2.01,3.25c0,0.69 0.67,2.26 1.5,3.5c0.83,1.24 6.12,4.46 11.76,7.16c7.39,3.54 11.44,6.19 14.5,9.5c2.34,2.52 4.7,6.27 5.24,8.34c0.55,2.06 0.99,5.32 0.98,7.25c-0.01,1.93 -0.84,5.3 -1.85,7.5c-1.01,2.2 -3.14,5.29 -4.73,6.86c-1.59,1.57 -5.03,3.94 -7.64,5.25c-3.71,1.86 -6.34,2.39 -12,2.38c-5.27,0 -9.02,-0.68 -13.75,-2.47c-3.57,-1.35 -7.63,-3.63 -11.5,-7.65l3,-5.59c1.65,-3.07 3.45,-5.77 4,-5.98c0.55,-0.22 3.59,0.98 6.75,2.65c4.19,2.22 7.11,3.04 10.75,3.04c4.07,0 5.28,-0.42 6.51,-2.25c0.83,-1.24 1.52,-2.92 1.53,-3.75c0.01,-0.83 -1,-2.81 -2.26,-4.41c-1.28,-1.62 -5.82,-4.58 -10.28,-6.7c-4.4,-2.09 -9.58,-5.08 -11.5,-6.66c-1.92,-1.58 -4.51,-4.86 -5.74,-7.3c-1.46,-2.89 -2.24,-6.26 -2.25,-9.68c-0.01,-3.27 0.74,-6.75 1.99,-9.25c1.1,-2.2 3.58,-5.24 5.5,-6.75c1.93,-1.51 4.96,-3.3 6.75,-3.97c1.85,-0.7 6.94,-1.13 11.85,-1zM24.98,300c20.47,0 24.1,0.22 24.52,1.5c0.27,0.83 0.5,3.75 0.5,6.5c0,2.75 -0.22,5.68 -0.5,6.5c-0.42,1.25 -3.11,1.5 -31.5,1.5v15l25.5,0.5l0.27,7.5c0.19,5.24 -0.11,7.72 -1,8.23c-0.7,0.4 -6.56,0.74 -24.77,0.77l0.04,12.75c0.03,9.17 -0.32,13.1 -1.25,14c-0.85,0.82 -3.85,1.16 -16.29,0.75l-0.14,-36.5c-0.08,-20.07 0.02,-37.06 0.23,-37.75c0.28,-0.96 5.99,-1.25 24.39,-1.25zM80.33,300.02c12.39,0.01 20.53,0.45 23.03,1.25c2.13,0.68 5.45,2.58 7.39,4.23c1.94,1.65 4.42,4.8 5.51,7c1.09,2.2 2.21,6.25 2.5,9c0.43,4.03 0.01,6.12 -2.12,10.75c-1.77,3.85 -3.94,6.66 -6.54,8.5c-2.14,1.51 -4.6,3.2 -5.46,3.75c-1.35,0.86 -0.53,2.92 5.89,14.75c4.1,7.56 7.24,14.43 6.96,15.25c-0.39,1.16 -2.24,1.5 -8.25,1.48c-4.26,-0.01 -8.26,-0.35 -8.88,-0.75c-0.62,-0.4 -4.33,-7.15 -15.37,-29.23h-7l-0.5,29.5l-7.5,0.25c-4.95,0.16 -7.94,-0.18 -8.79,-1c-1.01,-0.98 -1.28,-8.92 -1.25,-36.5c0.02,-19.39 0.31,-35.92 0.63,-36.75c0.49,-1.26 3.63,-1.5 19.75,-1.48zM78,324v8c17.85,0 18.25,-0.1 21.08,-3c1.65,-1.69 2.92,-4.09 2.92,-5.5c0,-1.38 -1.13,-3.63 -2.5,-5c-2.32,-2.32 -3.2,-2.5 -12,-2.5h-9.5M131.01,299.96l48.49,0.54v15l-31.5,0.5v13h13c12.65,0 13.01,0.06 13.55,2.25c0.3,1.24 0.42,4.73 -0.05,13.25l-26.5,0.5v15h32l-0.5,15.5h-48l-0.24,-37.77M267.5,300.5l0.5,28.5h30l0.5,-28.5h17l0.28,35.5c0.15,19.52 0.04,36.51 -0.25,37.75c-0.49,2.1 -1.06,2.25 -8.53,2.25c-6.22,0 -8.11,-0.33 -8.5,-1.5c-0.27,-0.83 -0.5,-7.8 -0.5,-29.5h-30l-0.5,30.5l-8,0.27c-5.64,0.19 -8.22,-0.11 -8.73,-1c-0.4,-0.7 -0.82,-17.5 -0.92,-37.35c-0.1,-19.85 0.21,-36.4 0.69,-36.79c0.48,-0.39 4.49,-0.57 16.96,-0.13z" />
</svg>